<svg width="35" height="35" viewBox="0 0 35 35" fill="none" xmlns="http://www.w3.org/2000/svg">
<rect width="35" height="35" rx="17.5" fill="#5C6574"/>
<path d="M15.478 26.625C16.4834 26.7921 17.5094 26.7928 18.515 26.6271M15.478 26.625C13.3184 26.2646 11.3558 25.1497 9.94091 23.4789C8.52604 21.808 7.74971 19.6895 7.75 17.5C7.75036 15.7354 8.25548 14.0077 9.20575 12.5208C10.156 11.0339 11.5118 9.84977 13.1131 9.10826C14.7143 8.36674 16.4943 8.09873 18.243 8.33585C19.9916 8.57297 21.6359 9.30533 22.9819 10.4465C24.3279 11.5877 25.3193 13.0901 25.8393 14.7763C26.3593 16.4626 26.3861 18.2625 25.9165 19.9635C25.4469 21.6645 24.5005 23.1957 23.1891 24.3764C21.8776 25.5571 20.2558 26.338 18.515 26.6271M15.478 26.625L15.477 21.62H13.58C13.4209 21.62 13.2683 21.5568 13.1557 21.4443C13.0432 21.3318 12.98 21.1792 12.98 21.02V19.182C12.98 19.0229 13.0432 18.8703 13.1557 18.7578C13.2683 18.6453 13.4209 18.582 13.58 18.582H15.477V15.45C15.477 14.6544 15.7931 13.8913 16.3557 13.3287C16.9183 12.7661 17.6814 12.45 18.477 12.45H20.287C20.5522 12.45 20.8066 12.5554 20.9941 12.7429C21.1816 12.9305 21.287 13.1848 21.287 13.45V14.49C21.287 14.7553 21.1816 15.0096 20.9941 15.1972C20.8066 15.3847 20.5522 15.49 20.287 15.49H19.515C19.2498 15.49 18.9954 15.5954 18.8079 15.7829C18.6204 15.9705 18.515 16.2248 18.515 16.49V18.582H20.812C20.8991 18.582 20.9851 18.601 21.0642 18.6376C21.1432 18.6742 21.2133 18.7275 21.2696 18.794C21.326 18.8604 21.3672 18.9383 21.3904 19.0222C21.4136 19.1061 21.4182 19.1941 21.404 19.28L21.154 20.784C21.1152 21.0176 20.9948 21.2297 20.8142 21.3828C20.6337 21.5359 20.4047 21.6199 20.168 21.62H18.515V26.6271" stroke="white" stroke-width="1.5" stroke-linecap="round"/>
</svg>
