<svg width="35" height="35" viewBox="0 0 35 35" fill="none" xmlns="http://www.w3.org/2000/svg">
<rect width="35" height="35" rx="17.5" fill="#5C6574"/>
<path d="M17.04 7.50005C11.58 7.50005 7.13005 11.9501 7.13005 17.4101C7.13005 19.1601 7.59005 20.8601 8.45005 22.3601L7.05005 27.5001L12.3 26.1201C13.75 26.9101 15.38 27.3301 17.04 27.3301C22.5 27.3301 26.9501 22.8801 26.9501 17.4201C26.9501 14.7701 25.92 12.2801 24.05 10.4101C23.1331 9.48416 22.0411 8.75002 20.8376 8.25042C19.634 7.75081 18.3431 7.49574 17.04 7.50005ZM17.05 9.17005C19.25 9.17005 21.31 10.0301 22.87 11.5901C23.6354 12.3556 24.2423 13.2646 24.6558 14.265C25.0694 15.2654 25.2815 16.3375 25.2801 17.4201C25.2801 21.9601 21.58 25.6501 17.04 25.6501C15.56 25.6501 14.11 25.2601 12.85 24.5001L12.55 24.3301L9.43005 25.1501L10.26 22.1101L10.06 21.7901C9.2346 20.4785 8.79772 18.9598 8.80005 17.4101C8.81005 12.8701 12.5 9.17005 17.05 9.17005ZM13.53 12.8301C13.37 12.8301 13.1 12.8901 12.87 13.1401C12.65 13.3901 12 14.0001 12 15.2101C12 16.4301 12.89 17.6001 13 17.7701C13.14 17.9401 14.76 20.4401 17.25 21.5001C17.84 21.7701 18.3 21.9201 18.66 22.0301C19.25 22.2201 19.79 22.1901 20.22 22.1301C20.7 22.0601 21.68 21.5301 21.89 20.9501C22.1 20.3701 22.1 19.8801 22.04 19.7701C21.97 19.6701 21.81 19.6101 21.56 19.5001C21.31 19.3601 20.09 18.7601 19.87 18.6801C19.64 18.6001 19.5 18.5601 19.31 18.8001C19.15 19.0501 18.67 19.6101 18.53 19.7701C18.38 19.9401 18.24 19.9601 18 19.8401C17.74 19.7101 16.94 19.4501 16 18.6101C15.26 17.9501 14.77 17.1401 14.62 16.8901C14.5 16.6501 14.61 16.5001 14.73 16.3901C14.84 16.2801 15 16.1001 15.1 15.9501C15.23 15.8101 15.27 15.7001 15.35 15.5401C15.43 15.3701 15.39 15.2301 15.33 15.1101C15.27 15.0001 14.77 13.7601 14.56 13.2701C14.36 12.7901 14.16 12.8501 14 12.8401C13.86 12.8401 13.7 12.8301 13.53 12.8301Z" fill="white"/>
</svg>
