<svg width="35" height="35" viewBox="0 0 35 35" fill="none" xmlns="http://www.w3.org/2000/svg">
<rect width="35" height="35" rx="17.5" fill="#5C6574"/>
<path d="M17.001 14.5C16.2054 14.5 15.4423 14.8161 14.8797 15.3787C14.3171 15.9413 14.001 16.7044 14.001 17.5C14.001 18.2956 14.3171 19.0587 14.8797 19.6213C15.4423 20.1839 16.2054 20.5 17.001 20.5C17.7966 20.5 18.5597 20.1839 19.1223 19.6213C19.6849 19.0587 20.001 18.2956 20.001 17.5C20.001 16.7044 19.6849 15.9413 19.1223 15.3787C18.5597 14.8161 17.7966 14.5 17.001 14.5ZM17.001 12.5C18.3271 12.5 19.5989 13.0268 20.5365 13.9645C21.4742 14.9021 22.001 16.1739 22.001 17.5C22.001 18.8261 21.4742 20.0979 20.5365 21.0355C19.5989 21.9732 18.3271 22.5 17.001 22.5C15.6749 22.5 14.4031 21.9732 13.4655 21.0355C12.5278 20.0979 12.001 18.8261 12.001 17.5C12.001 16.1739 12.5278 14.9021 13.4655 13.9645C14.4031 13.0268 15.6749 12.5 17.001 12.5ZM23.501 12.25C23.501 12.5815 23.3693 12.8995 23.1349 13.1339C22.9005 13.3683 22.5825 13.5 22.251 13.5C21.9195 13.5 21.6015 13.3683 21.3671 13.1339C21.1327 12.8995 21.001 12.5815 21.001 12.25C21.001 11.9185 21.1327 11.6005 21.3671 11.3661C21.6015 11.1317 21.9195 11 22.251 11C22.5825 11 22.9005 11.1317 23.1349 11.3661C23.3693 11.6005 23.501 11.9185 23.501 12.25ZM17.001 9.5C14.527 9.5 14.123 9.507 12.972 9.558C12.188 9.595 11.662 9.7 11.174 9.89C10.7658 10.0404 10.3967 10.2806 10.094 10.593C9.78127 10.8956 9.54066 11.2647 9.39 11.673C9.2 12.163 9.095 12.688 9.059 13.471C9.007 14.575 9 14.961 9 17.5C9 19.975 9.007 20.378 9.058 21.529C9.095 22.312 9.2 22.839 9.389 23.326C9.559 23.761 9.759 24.074 10.091 24.406C10.428 24.742 10.741 24.943 11.171 25.109C11.665 25.3 12.191 25.406 12.971 25.442C14.075 25.494 14.461 25.5 17 25.5C19.475 25.5 19.878 25.493 21.029 25.442C21.811 25.405 22.337 25.3 22.826 25.111C23.2342 24.9606 23.6033 24.7204 23.906 24.408C24.243 24.072 24.444 23.759 24.61 23.328C24.8 22.836 24.906 22.31 24.942 21.528C24.994 20.425 25 20.038 25 17.5C25 15.026 24.993 14.622 24.942 13.471C24.905 12.689 24.799 12.161 24.61 11.673C24.4596 11.2648 24.2194 10.8957 23.907 10.593C23.6044 10.2803 23.2353 10.0397 22.827 9.889C22.337 9.699 21.811 9.594 21.029 9.558C19.926 9.506 19.54 9.5 17 9.5M17 7.5C19.717 7.5 20.056 7.51 21.123 7.56C22.187 7.61 22.913 7.777 23.55 8.025C24.21 8.279 24.766 8.623 25.322 9.178C25.8307 9.67773 26.2242 10.2825 26.475 10.95C26.722 11.587 26.89 12.313 26.94 13.378C26.987 14.444 27 14.783 27 17.5C27 20.217 26.99 20.556 26.94 21.622C26.89 22.688 26.722 23.412 26.475 24.05C26.2242 24.7175 25.8307 25.3223 25.322 25.822C24.8223 26.3307 24.2175 26.7242 23.55 26.975C22.913 27.222 22.187 27.39 21.123 27.44C20.056 27.487 19.717 27.5 17 27.5C14.283 27.5 13.944 27.49 12.877 27.44C11.813 27.39 11.088 27.222 10.45 26.975C9.78247 26.7242 9.17773 26.3307 8.678 25.822C8.16931 25.3223 7.77582 24.7175 7.525 24.05C7.277 23.413 7.11 22.687 7.06 21.622C7.012 20.556 7 20.217 7 17.5C7 14.783 7.01 14.444 7.06 13.378C7.11 12.312 7.277 11.588 7.525 10.95C7.77582 10.2825 8.16931 9.67773 8.678 9.178C9.17773 8.66931 9.78247 8.27582 10.45 8.025C11.087 7.777 11.812 7.61 12.877 7.56C13.945 7.513 14.284 7.5 17.001 7.5" fill="white"/>
</svg>
